<mxfile host="app.diagrams.net" agent="Mozilla/5.0 (Windows NT 10.0; Win64; x64) AppleWebKit/537.36 (KHTML, like Gecko) Chrome/131.0.0.0 Safari/537.36 OPR/116.0.0.0" version="26.0.14">
  <diagram name="Page-1" id="FVMDrm11FqmY5mwUxcbf">
    <mxGraphModel dx="611" dy="288" grid="1" gridSize="10" guides="1" tooltips="1" connect="1" arrows="1" fold="1" page="1" pageScale="1" pageWidth="850" pageHeight="1100" math="0" shadow="0">
      <root>
        <mxCell id="0" />
        <mxCell id="1" parent="0" />
        <mxCell id="0jCtsFTJbqLTCcz20e-4-1" value="" style="verticalAlign=top;align=center;spacingTop=8;spacingLeft=2;spacingRight=12;shape=cube;size=10;direction=south;fontStyle=4;html=1;whiteSpace=wrap;" vertex="1" parent="1">
          <mxGeometry x="40" y="40" width="140" height="60" as="geometry" />
        </mxCell>
        <mxCell id="0jCtsFTJbqLTCcz20e-4-2" value="" style="verticalAlign=top;align=center;spacingTop=8;spacingLeft=2;spacingRight=12;shape=cube;size=10;direction=south;fontStyle=4;html=1;whiteSpace=wrap;" vertex="1" parent="1">
          <mxGeometry x="40" y="130" width="140" height="60" as="geometry" />
        </mxCell>
        <mxCell id="0jCtsFTJbqLTCcz20e-4-5" value="web server" style="verticalAlign=top;align=center;spacingTop=8;spacingLeft=2;spacingRight=12;shape=cube;size=10;direction=south;fontStyle=4;html=1;whiteSpace=wrap;" vertex="1" parent="1">
          <mxGeometry x="500" y="67.5" width="150" height="171" as="geometry" />
        </mxCell>
        <mxCell id="0jCtsFTJbqLTCcz20e-4-7" value="&amp;lt;&amp;lt;device&amp;gt;&amp;gt;" style="text;align=center;fontStyle=0;verticalAlign=middle;spacingLeft=3;spacingRight=3;strokeColor=none;rotatable=0;points=[[0,0.5],[1,0.5]];portConstraint=eastwest;html=1;" vertex="1" parent="1">
          <mxGeometry x="60" y="50" width="80" height="26" as="geometry" />
        </mxCell>
        <mxCell id="0jCtsFTJbqLTCcz20e-4-8" value="user PC" style="text;align=center;fontStyle=0;verticalAlign=middle;spacingLeft=3;spacingRight=3;strokeColor=none;rotatable=0;points=[[0,0.5],[1,0.5]];portConstraint=eastwest;html=1;" vertex="1" parent="1">
          <mxGeometry x="60" y="76" width="80" height="26" as="geometry" />
        </mxCell>
        <mxCell id="0jCtsFTJbqLTCcz20e-4-9" value="&amp;lt;&amp;lt;device&amp;gt;&amp;gt;" style="text;align=center;fontStyle=0;verticalAlign=middle;spacingLeft=3;spacingRight=3;strokeColor=none;rotatable=0;points=[[0,0.5],[1,0.5]];portConstraint=eastwest;html=1;" vertex="1" parent="1">
          <mxGeometry x="60" y="140" width="80" height="26" as="geometry" />
        </mxCell>
        <mxCell id="0jCtsFTJbqLTCcz20e-4-10" value="user phone" style="text;align=center;fontStyle=0;verticalAlign=middle;spacingLeft=3;spacingRight=3;strokeColor=none;rotatable=0;points=[[0,0.5],[1,0.5]];portConstraint=eastwest;html=1;" vertex="1" parent="1">
          <mxGeometry x="60" y="164" width="80" height="26" as="geometry" />
        </mxCell>
        <mxCell id="0jCtsFTJbqLTCcz20e-4-11" value="" style="verticalAlign=top;align=center;spacingTop=8;spacingLeft=2;spacingRight=12;shape=cube;size=10;direction=south;fontStyle=4;html=1;whiteSpace=wrap;" vertex="1" parent="1">
          <mxGeometry x="40" y="212" width="140" height="60" as="geometry" />
        </mxCell>
        <mxCell id="0jCtsFTJbqLTCcz20e-4-12" value="&amp;lt;&amp;lt;device&amp;gt;&amp;gt;" style="text;align=center;fontStyle=0;verticalAlign=middle;spacingLeft=3;spacingRight=3;strokeColor=none;rotatable=0;points=[[0,0.5],[1,0.5]];portConstraint=eastwest;html=1;" vertex="1" parent="1">
          <mxGeometry x="70" y="220" width="80" height="26" as="geometry" />
        </mxCell>
        <mxCell id="0jCtsFTJbqLTCcz20e-4-13" value="user tablet" style="text;align=center;fontStyle=0;verticalAlign=middle;spacingLeft=3;spacingRight=3;strokeColor=none;rotatable=0;points=[[0,0.5],[1,0.5]];portConstraint=eastwest;html=1;" vertex="1" parent="1">
          <mxGeometry x="60" y="246" width="80" height="26" as="geometry" />
        </mxCell>
        <mxCell id="0jCtsFTJbqLTCcz20e-4-20" value="https requests" style="text;align=center;verticalAlign=middle;dashed=0;whiteSpace=wrap;fontSize=9;" vertex="1" parent="1">
          <mxGeometry x="380" y="10" width="70" height="10" as="geometry" />
        </mxCell>
        <mxCell id="0jCtsFTJbqLTCcz20e-4-36" value="[account management requests]" style="endArrow=open;startArrow=none;endFill=0;startFill=0;endSize=8;html=1;verticalAlign=bottom;dashed=1;labelBackgroundColor=none;rounded=0;entryX=0.13;entryY=1.017;entryDx=0;entryDy=0;entryPerimeter=0;" edge="1" parent="1" target="0jCtsFTJbqLTCcz20e-4-5">
          <mxGeometry width="160" relative="1" as="geometry">
            <mxPoint x="240" y="88.77" as="sourcePoint" />
            <mxPoint x="400" y="88.77" as="targetPoint" />
          </mxGeometry>
        </mxCell>
        <mxCell id="0jCtsFTJbqLTCcz20e-4-40" value="" style="endArrow=none;html=1;rounded=0;dashed=1;dashPattern=1 2;" edge="1" parent="1">
          <mxGeometry relative="1" as="geometry">
            <mxPoint x="180" y="69.82" as="sourcePoint" />
            <mxPoint x="240" y="140" as="targetPoint" />
            <Array as="points">
              <mxPoint x="240" y="70" />
            </Array>
          </mxGeometry>
        </mxCell>
        <mxCell id="0jCtsFTJbqLTCcz20e-4-41" value="n" style="resizable=0;html=1;whiteSpace=wrap;align=left;verticalAlign=bottom;" connectable="0" vertex="1" parent="0jCtsFTJbqLTCcz20e-4-40">
          <mxGeometry x="-1" relative="1" as="geometry" />
        </mxCell>
        <mxCell id="0jCtsFTJbqLTCcz20e-4-42" value="" style="resizable=0;html=1;whiteSpace=wrap;align=right;verticalAlign=bottom;" connectable="0" vertex="1" parent="0jCtsFTJbqLTCcz20e-4-40">
          <mxGeometry x="1" relative="1" as="geometry" />
        </mxCell>
        <mxCell id="0jCtsFTJbqLTCcz20e-4-45" value="" style="endArrow=none;html=1;rounded=0;dashed=1;dashPattern=1 2;" edge="1" parent="1">
          <mxGeometry relative="1" as="geometry">
            <mxPoint x="180" y="140" as="sourcePoint" />
            <mxPoint x="240" y="90" as="targetPoint" />
            <Array as="points">
              <mxPoint x="220" y="140" />
              <mxPoint x="220" y="90" />
            </Array>
          </mxGeometry>
        </mxCell>
        <mxCell id="0jCtsFTJbqLTCcz20e-4-46" value="n" style="resizable=0;html=1;whiteSpace=wrap;align=left;verticalAlign=bottom;" connectable="0" vertex="1" parent="0jCtsFTJbqLTCcz20e-4-45">
          <mxGeometry x="-1" relative="1" as="geometry" />
        </mxCell>
        <mxCell id="0jCtsFTJbqLTCcz20e-4-47" value="" style="resizable=0;html=1;whiteSpace=wrap;align=right;verticalAlign=bottom;" connectable="0" vertex="1" parent="0jCtsFTJbqLTCcz20e-4-45">
          <mxGeometry x="1" relative="1" as="geometry" />
        </mxCell>
        <mxCell id="0jCtsFTJbqLTCcz20e-4-48" value="" style="endArrow=none;html=1;rounded=0;dashed=1;dashPattern=1 2;" edge="1" parent="1">
          <mxGeometry relative="1" as="geometry">
            <mxPoint x="180" y="220" as="sourcePoint" />
            <mxPoint x="230" y="88.58822990866268" as="targetPoint" />
            <Array as="points">
              <mxPoint x="230" y="220" />
              <mxPoint x="230" y="170" />
            </Array>
          </mxGeometry>
        </mxCell>
        <mxCell id="0jCtsFTJbqLTCcz20e-4-49" value="n" style="resizable=0;html=1;whiteSpace=wrap;align=left;verticalAlign=bottom;" connectable="0" vertex="1" parent="0jCtsFTJbqLTCcz20e-4-48">
          <mxGeometry x="-1" relative="1" as="geometry" />
        </mxCell>
        <mxCell id="0jCtsFTJbqLTCcz20e-4-50" value="" style="resizable=0;html=1;whiteSpace=wrap;align=right;verticalAlign=bottom;" connectable="0" vertex="1" parent="0jCtsFTJbqLTCcz20e-4-48">
          <mxGeometry x="1" relative="1" as="geometry" />
        </mxCell>
        <mxCell id="0jCtsFTJbqLTCcz20e-4-57" value="" style="endArrow=none;html=1;rounded=0;dashed=1;dashPattern=1 2;" edge="1" parent="1">
          <mxGeometry relative="1" as="geometry">
            <mxPoint x="210" y="140" as="sourcePoint" />
            <mxPoint x="250" y="140" as="targetPoint" />
          </mxGeometry>
        </mxCell>
        <mxCell id="0jCtsFTJbqLTCcz20e-4-58" value="" style="resizable=0;html=1;whiteSpace=wrap;align=right;verticalAlign=bottom;" connectable="0" vertex="1" parent="0jCtsFTJbqLTCcz20e-4-57">
          <mxGeometry x="1" relative="1" as="geometry" />
        </mxCell>
        <mxCell id="0jCtsFTJbqLTCcz20e-4-59" value="" style="endArrow=none;html=1;rounded=0;dashed=1;dashPattern=1 2;" edge="1" parent="1">
          <mxGeometry relative="1" as="geometry">
            <mxPoint x="230" y="220" as="sourcePoint" />
            <mxPoint x="240" y="140" as="targetPoint" />
            <Array as="points">
              <mxPoint x="240" y="220" />
            </Array>
          </mxGeometry>
        </mxCell>
        <mxCell id="0jCtsFTJbqLTCcz20e-4-60" value="" style="resizable=0;html=1;whiteSpace=wrap;align=right;verticalAlign=bottom;" connectable="0" vertex="1" parent="0jCtsFTJbqLTCcz20e-4-59">
          <mxGeometry x="1" relative="1" as="geometry" />
        </mxCell>
        <mxCell id="0jCtsFTJbqLTCcz20e-4-61" value="[order management requests]" style="endArrow=open;startArrow=none;endFill=0;startFill=0;endSize=8;html=1;verticalAlign=bottom;dashed=1;labelBackgroundColor=none;rounded=0;entryX=0.13;entryY=1.017;entryDx=0;entryDy=0;entryPerimeter=0;" edge="1" parent="1">
          <mxGeometry width="160" relative="1" as="geometry">
            <mxPoint x="240" y="140" as="sourcePoint" />
            <mxPoint x="497" y="141.23" as="targetPoint" />
          </mxGeometry>
        </mxCell>
      </root>
    </mxGraphModel>
  </diagram>
</mxfile>
